<mxfile host="app.diagrams.net" agent="Mozilla/5.0 (Windows NT 10.0; Win64; x64) AppleWebKit/537.36 (KHTML, like Gecko) Chrome/135.0.0.0 Safari/537.36" version="26.2.14">
  <diagram name="Page-1" id="djL5MbcZLxpp5AmErQom">
    <mxGraphModel dx="1715" dy="735" grid="0" gridSize="10" guides="1" tooltips="1" connect="1" arrows="1" fold="1" page="0" pageScale="1" pageWidth="827" pageHeight="1169" math="0" shadow="0">
      <root>
        <mxCell id="0" />
        <mxCell id="1" parent="0" />
        <mxCell id="Ys3RYHyfG5r-3LQATyCL-1" style="edgeStyle=none;curved=1;rounded=0;orthogonalLoop=1;jettySize=auto;html=1;entryX=1;entryY=0.5;entryDx=0;entryDy=0;fontSize=12;startSize=8;endSize=8;exitX=0;exitY=0.5;exitDx=0;exitDy=0;" parent="1" source="Ys3RYHyfG5r-3LQATyCL-64" target="Ys3RYHyfG5r-3LQATyCL-21" edge="1">
          <mxGeometry relative="1" as="geometry">
            <mxPoint x="388" y="196" as="sourcePoint" />
          </mxGeometry>
        </mxCell>
        <mxCell id="Ys3RYHyfG5r-3LQATyCL-2" value="If pressed &amp;gt;=2s" style="edgeLabel;html=1;align=center;verticalAlign=middle;resizable=0;points=[];fontSize=9;rotation=0;" parent="Ys3RYHyfG5r-3LQATyCL-1" vertex="1" connectable="0">
          <mxGeometry x="0.0206" y="-1" relative="1" as="geometry">
            <mxPoint x="4" y="-10" as="offset" />
          </mxGeometry>
        </mxCell>
        <mxCell id="Ys3RYHyfG5r-3LQATyCL-4" style="edgeStyle=none;curved=1;rounded=0;orthogonalLoop=1;jettySize=auto;html=1;entryX=1;entryY=0.5;entryDx=0;entryDy=0;fontSize=12;startSize=8;endSize=8;exitX=0;exitY=0.5;exitDx=0;exitDy=0;" parent="1" source="Ys3RYHyfG5r-3LQATyCL-34" target="Ys3RYHyfG5r-3LQATyCL-11" edge="1">
          <mxGeometry relative="1" as="geometry">
            <mxPoint x="120" y="311" as="sourcePoint" />
            <mxPoint x="114" y="386" as="targetPoint" />
          </mxGeometry>
        </mxCell>
        <mxCell id="Ys3RYHyfG5r-3LQATyCL-5" value="If pressed &amp;gt;=5s" style="edgeLabel;html=1;align=center;verticalAlign=middle;resizable=0;points=[];fontSize=12;rotation=0;" parent="Ys3RYHyfG5r-3LQATyCL-4" vertex="1" connectable="0">
          <mxGeometry x="0.2821" y="2" relative="1" as="geometry">
            <mxPoint x="15" y="-12" as="offset" />
          </mxGeometry>
        </mxCell>
        <mxCell id="Ys3RYHyfG5r-3LQATyCL-6" style="edgeStyle=none;curved=1;rounded=0;orthogonalLoop=1;jettySize=auto;html=1;exitX=1;exitY=0.25;exitDx=0;exitDy=0;entryX=0;entryY=0.5;entryDx=0;entryDy=0;fontSize=12;startSize=8;endSize=8;" parent="1" source="Ys3RYHyfG5r-3LQATyCL-8" target="Ys3RYHyfG5r-3LQATyCL-16" edge="1">
          <mxGeometry relative="1" as="geometry" />
        </mxCell>
        <mxCell id="Ys3RYHyfG5r-3LQATyCL-7" value="If pressed 2s&amp;lt; x &amp;lt;5s" style="edgeLabel;html=1;align=center;verticalAlign=middle;resizable=0;points=[];fontSize=9;rotation=-7;" parent="Ys3RYHyfG5r-3LQATyCL-6" vertex="1" connectable="0">
          <mxGeometry x="-0.148" y="-1" relative="1" as="geometry">
            <mxPoint x="3" y="-11" as="offset" />
          </mxGeometry>
        </mxCell>
        <mxCell id="Ys3RYHyfG5r-3LQATyCL-8" value="CLOSED" style="whiteSpace=wrap;html=1;" parent="1" vertex="1">
          <mxGeometry x="29" y="111" width="80" height="39" as="geometry" />
        </mxCell>
        <mxCell id="Ys3RYHyfG5r-3LQATyCL-11" value="LOCKED" style="whiteSpace=wrap;html=1;" parent="1" vertex="1">
          <mxGeometry x="-205" y="111" width="80" height="39" as="geometry" />
        </mxCell>
        <mxCell id="Ys3RYHyfG5r-3LQATyCL-12" style="edgeStyle=none;curved=1;rounded=0;orthogonalLoop=1;jettySize=auto;html=1;fontSize=12;startSize=8;endSize=8;entryX=0;entryY=0.5;entryDx=0;entryDy=0;exitX=1;exitY=0.5;exitDx=0;exitDy=0;" parent="1" source="Ys3RYHyfG5r-3LQATyCL-16" target="Ys3RYHyfG5r-3LQATyCL-56" edge="1">
          <mxGeometry relative="1" as="geometry">
            <mxPoint x="393" y="188" as="targetPoint" />
            <mxPoint x="357" y="88" as="sourcePoint" />
          </mxGeometry>
        </mxCell>
        <mxCell id="Ys3RYHyfG5r-3LQATyCL-13" value="If sw_open" style="edgeLabel;html=1;align=center;verticalAlign=middle;resizable=0;points=[];fontSize=12;rotation=10;" parent="Ys3RYHyfG5r-3LQATyCL-12" vertex="1" connectable="0">
          <mxGeometry x="-0.1227" relative="1" as="geometry">
            <mxPoint x="8" y="-10" as="offset" />
          </mxGeometry>
        </mxCell>
        <mxCell id="Ys3RYHyfG5r-3LQATyCL-14" style="edgeStyle=none;curved=1;rounded=0;orthogonalLoop=1;jettySize=auto;html=1;exitX=0.5;exitY=1;exitDx=0;exitDy=0;fontSize=12;startSize=8;endSize=8;entryX=0.25;entryY=1;entryDx=0;entryDy=0;" parent="1" source="Ys3RYHyfG5r-3LQATyCL-16" target="Ys3RYHyfG5r-3LQATyCL-24" edge="1">
          <mxGeometry relative="1" as="geometry">
            <mxPoint x="370.00130434782625" y="130.99652173913051" as="targetPoint" />
            <mxPoint x="332.6100000000001" y="142.79000000000002" as="sourcePoint" />
          </mxGeometry>
        </mxCell>
        <mxCell id="Ys3RYHyfG5r-3LQATyCL-15" value="time &amp;gt;5s" style="edgeLabel;html=1;align=center;verticalAlign=middle;resizable=0;points=[];fontSize=12;rotation=-60;" parent="Ys3RYHyfG5r-3LQATyCL-14" vertex="1" connectable="0">
          <mxGeometry x="0.0717" relative="1" as="geometry">
            <mxPoint x="20" y="-60" as="offset" />
          </mxGeometry>
        </mxCell>
        <mxCell id="Ys3RYHyfG5r-3LQATyCL-16" value="OPENING" style="whiteSpace=wrap;html=1;" parent="1" vertex="1">
          <mxGeometry x="209" y="87" width="80" height="39" as="geometry" />
        </mxCell>
        <mxCell id="Ys3RYHyfG5r-3LQATyCL-17" style="edgeStyle=none;curved=1;rounded=0;orthogonalLoop=1;jettySize=auto;html=1;fontSize=12;startSize=8;endSize=8;exitX=0;exitY=0.5;exitDx=0;exitDy=0;entryX=1;entryY=0.5;entryDx=0;entryDy=0;" parent="1" source="Ys3RYHyfG5r-3LQATyCL-21" target="Ys3RYHyfG5r-3LQATyCL-53" edge="1">
          <mxGeometry relative="1" as="geometry">
            <mxPoint x="180.66666666666674" y="306" as="targetPoint" />
            <mxPoint x="171" y="279" as="sourcePoint" />
          </mxGeometry>
        </mxCell>
        <mxCell id="Ys3RYHyfG5r-3LQATyCL-18" value="If sw_close" style="edgeLabel;html=1;align=center;verticalAlign=middle;resizable=0;points=[];fontSize=12;rotation=0;" parent="Ys3RYHyfG5r-3LQATyCL-17" vertex="1" connectable="0">
          <mxGeometry x="-0.2793" y="-1" relative="1" as="geometry">
            <mxPoint x="-24" y="-9" as="offset" />
          </mxGeometry>
        </mxCell>
        <mxCell id="Ys3RYHyfG5r-3LQATyCL-19" style="edgeStyle=none;curved=1;rounded=0;orthogonalLoop=1;jettySize=auto;html=1;fontSize=12;startSize=8;endSize=8;entryX=0;entryY=1;entryDx=0;entryDy=0;exitX=0;exitY=1;exitDx=0;exitDy=0;" parent="1" source="Ys3RYHyfG5r-3LQATyCL-21" target="Ys3RYHyfG5r-3LQATyCL-24" edge="1">
          <mxGeometry relative="1" as="geometry">
            <mxPoint x="97" y="349.08333333333337" as="targetPoint" />
            <mxPoint x="178" y="318" as="sourcePoint" />
          </mxGeometry>
        </mxCell>
        <mxCell id="Ys3RYHyfG5r-3LQATyCL-20" value="time &amp;gt;5s" style="edgeLabel;html=1;align=center;verticalAlign=middle;resizable=0;points=[];fontSize=12;rotation=-45;" parent="Ys3RYHyfG5r-3LQATyCL-19" vertex="1" connectable="0">
          <mxGeometry x="0.2656" y="-1" relative="1" as="geometry">
            <mxPoint x="16" as="offset" />
          </mxGeometry>
        </mxCell>
        <mxCell id="Ys3RYHyfG5r-3LQATyCL-21" value="CLOSING" style="whiteSpace=wrap;html=1;" parent="1" vertex="1">
          <mxGeometry x="209" y="234" width="80" height="39" as="geometry" />
        </mxCell>
        <mxCell id="Ys3RYHyfG5r-3LQATyCL-77" style="edgeStyle=none;curved=1;rounded=0;orthogonalLoop=1;jettySize=auto;html=1;fontSize=12;startSize=8;endSize=8;entryX=0;entryY=0;entryDx=0;entryDy=0;exitX=0;exitY=0;exitDx=0;exitDy=0;" parent="1" source="Ys3RYHyfG5r-3LQATyCL-24" target="Ys3RYHyfG5r-3LQATyCL-87" edge="1">
          <mxGeometry relative="1" as="geometry">
            <mxPoint x="169" y="380" as="sourcePoint" />
            <mxPoint x="157" y="372" as="targetPoint" />
          </mxGeometry>
        </mxCell>
        <mxCell id="Ys3RYHyfG5r-3LQATyCL-78" value="If reset pressed" style="edgeLabel;html=1;align=center;verticalAlign=middle;resizable=0;points=[];fontSize=8;rotation=35;" parent="Ys3RYHyfG5r-3LQATyCL-77" vertex="1" connectable="0">
          <mxGeometry x="-0.39" y="-1" relative="1" as="geometry">
            <mxPoint x="14" y="-1" as="offset" />
          </mxGeometry>
        </mxCell>
        <mxCell id="Ys3RYHyfG5r-3LQATyCL-24" value="ERROR" style="whiteSpace=wrap;html=1;direction=west;" parent="1" vertex="1">
          <mxGeometry x="88" y="313" width="80" height="39" as="geometry" />
        </mxCell>
        <mxCell id="Ys3RYHyfG5r-3LQATyCL-34" value="CLOSE_PRESSED" style="whiteSpace=wrap;html=1;" parent="1" vertex="1">
          <mxGeometry x="-20" y="111" width="129" height="39" as="geometry" />
        </mxCell>
        <mxCell id="Ys3RYHyfG5r-3LQATyCL-35" value="" style="html=1;verticalAlign=bottom;startArrow=circle;startFill=1;endArrow=open;startSize=6;endSize=8;curved=0;rounded=0;fontSize=12;entryX=0.5;entryY=1;entryDx=0;entryDy=0;" parent="1" target="Ys3RYHyfG5r-3LQATyCL-87" edge="1">
          <mxGeometry width="80" relative="1" as="geometry">
            <mxPoint x="249" y="486" as="sourcePoint" />
            <mxPoint x="-60" y="370" as="targetPoint" />
          </mxGeometry>
        </mxCell>
        <mxCell id="Ys3RYHyfG5r-3LQATyCL-53" value="CLOSED" style="whiteSpace=wrap;html=1;" parent="1" vertex="1">
          <mxGeometry x="23" y="234" width="80" height="39" as="geometry" />
        </mxCell>
        <mxCell id="Ys3RYHyfG5r-3LQATyCL-54" style="edgeStyle=none;curved=1;rounded=0;orthogonalLoop=1;jettySize=auto;html=1;fontSize=12;startSize=8;endSize=8;entryX=0.5;entryY=1;entryDx=0;entryDy=0;exitX=0.25;exitY=0;exitDx=0;exitDy=0;" parent="1" source="Ys3RYHyfG5r-3LQATyCL-53" target="Ys3RYHyfG5r-3LQATyCL-34" edge="1">
          <mxGeometry relative="1" as="geometry">
            <mxPoint x="-42" y="3.5" as="targetPoint" />
            <mxPoint x="4" y="55" as="sourcePoint" />
          </mxGeometry>
        </mxCell>
        <mxCell id="Ys3RYHyfG5r-3LQATyCL-55" value="If start_btn" style="edgeLabel;html=1;align=center;verticalAlign=middle;resizable=0;points=[];fontSize=12;rotation=-90;" parent="Ys3RYHyfG5r-3LQATyCL-54" vertex="1" connectable="0">
          <mxGeometry x="-0.2793" y="-1" relative="1" as="geometry">
            <mxPoint x="-12" y="-10" as="offset" />
          </mxGeometry>
        </mxCell>
        <mxCell id="Ys3RYHyfG5r-3LQATyCL-56" value="OPEN" style="whiteSpace=wrap;html=1;" parent="1" vertex="1">
          <mxGeometry x="424.5" y="114" width="80" height="39" as="geometry" />
        </mxCell>
        <mxCell id="Ys3RYHyfG5r-3LQATyCL-62" style="edgeStyle=none;curved=1;rounded=0;orthogonalLoop=1;jettySize=auto;html=1;entryX=0.679;entryY=0.034;entryDx=0;entryDy=0;entryPerimeter=0;fontSize=12;startSize=8;endSize=8;exitX=0.75;exitY=1;exitDx=0;exitDy=0;" parent="1" source="Ys3RYHyfG5r-3LQATyCL-34" target="Ys3RYHyfG5r-3LQATyCL-53" edge="1">
          <mxGeometry relative="1" as="geometry" />
        </mxCell>
        <mxCell id="Ys3RYHyfG5r-3LQATyCL-63" value="If not start_btn" style="edgeLabel;html=1;align=center;verticalAlign=middle;resizable=0;points=[];fontSize=11;rotation=90;" parent="Ys3RYHyfG5r-3LQATyCL-62" vertex="1" connectable="0">
          <mxGeometry x="0.1197" y="-2" relative="1" as="geometry">
            <mxPoint x="15" y="-7" as="offset" />
          </mxGeometry>
        </mxCell>
        <mxCell id="Ys3RYHyfG5r-3LQATyCL-64" value="OPEN_PRESSED" style="whiteSpace=wrap;html=1;" parent="1" vertex="1">
          <mxGeometry x="375.5" y="234" width="129" height="36" as="geometry" />
        </mxCell>
        <mxCell id="Ys3RYHyfG5r-3LQATyCL-66" style="edgeStyle=none;curved=1;rounded=0;orthogonalLoop=1;jettySize=auto;html=1;fontSize=12;startSize=8;endSize=8;exitX=0.75;exitY=1;exitDx=0;exitDy=0;entryX=0.845;entryY=0;entryDx=0;entryDy=0;entryPerimeter=0;" parent="1" source="Ys3RYHyfG5r-3LQATyCL-56" target="Ys3RYHyfG5r-3LQATyCL-64" edge="1">
          <mxGeometry relative="1" as="geometry">
            <mxPoint x="452.5" y="210" as="targetPoint" />
            <mxPoint x="389.5" y="230" as="sourcePoint" />
          </mxGeometry>
        </mxCell>
        <mxCell id="Ys3RYHyfG5r-3LQATyCL-67" value="If start_btn" style="edgeLabel;html=1;align=center;verticalAlign=middle;resizable=0;points=[];fontSize=12;rotation=90;" parent="Ys3RYHyfG5r-3LQATyCL-66" vertex="1" connectable="0">
          <mxGeometry x="-0.2793" y="-1" relative="1" as="geometry">
            <mxPoint x="11" y="8" as="offset" />
          </mxGeometry>
        </mxCell>
        <mxCell id="Ys3RYHyfG5r-3LQATyCL-68" style="edgeStyle=none;curved=1;rounded=0;orthogonalLoop=1;jettySize=auto;html=1;fontSize=12;startSize=8;endSize=8;entryX=0.25;entryY=1;entryDx=0;entryDy=0;exitX=0.552;exitY=0.065;exitDx=0;exitDy=0;exitPerimeter=0;" parent="1" source="Ys3RYHyfG5r-3LQATyCL-64" target="Ys3RYHyfG5r-3LQATyCL-56" edge="1">
          <mxGeometry relative="1" as="geometry">
            <mxPoint x="459.5" y="221" as="sourcePoint" />
            <mxPoint x="457.5" y="218" as="targetPoint" />
          </mxGeometry>
        </mxCell>
        <mxCell id="Ys3RYHyfG5r-3LQATyCL-69" value="If not start_btn" style="edgeLabel;html=1;align=center;verticalAlign=middle;resizable=0;points=[];fontSize=9;rotation=-90;" parent="Ys3RYHyfG5r-3LQATyCL-68" vertex="1" connectable="0">
          <mxGeometry x="0.1197" y="-2" relative="1" as="geometry">
            <mxPoint x="-12" y="11" as="offset" />
          </mxGeometry>
        </mxCell>
        <mxCell id="Ys3RYHyfG5r-3LQATyCL-70" value="LOCK_PRESSED" style="whiteSpace=wrap;html=1;" parent="1" vertex="1">
          <mxGeometry x="-216" y="234" width="129" height="39" as="geometry" />
        </mxCell>
        <mxCell id="Ys3RYHyfG5r-3LQATyCL-71" style="edgeStyle=none;curved=1;rounded=0;orthogonalLoop=1;jettySize=auto;html=1;fontSize=12;startSize=8;endSize=8;entryX=0.25;entryY=0;entryDx=0;entryDy=0;exitX=0.25;exitY=1;exitDx=0;exitDy=0;" parent="1" source="Ys3RYHyfG5r-3LQATyCL-11" target="Ys3RYHyfG5r-3LQATyCL-70" edge="1">
          <mxGeometry relative="1" as="geometry">
            <mxPoint x="-106" y="153" as="targetPoint" />
            <mxPoint x="-189" y="189" as="sourcePoint" />
          </mxGeometry>
        </mxCell>
        <mxCell id="Ys3RYHyfG5r-3LQATyCL-72" value="If start_btn" style="edgeLabel;html=1;align=center;verticalAlign=middle;resizable=0;points=[];fontSize=12;rotation=-90;" parent="Ys3RYHyfG5r-3LQATyCL-71" vertex="1" connectable="0">
          <mxGeometry x="-0.2793" y="-1" relative="1" as="geometry">
            <mxPoint x="-10" y="6" as="offset" />
          </mxGeometry>
        </mxCell>
        <mxCell id="Ys3RYHyfG5r-3LQATyCL-73" style="edgeStyle=none;curved=1;rounded=0;orthogonalLoop=1;jettySize=auto;html=1;fontSize=12;startSize=8;endSize=8;entryX=0.75;entryY=1;entryDx=0;entryDy=0;exitX=0.564;exitY=0.03;exitDx=0;exitDy=0;exitPerimeter=0;" parent="1" source="Ys3RYHyfG5r-3LQATyCL-70" target="Ys3RYHyfG5r-3LQATyCL-11" edge="1">
          <mxGeometry relative="1" as="geometry">
            <mxPoint x="-66" y="237" as="sourcePoint" />
            <mxPoint x="-100" y="189" as="targetPoint" />
          </mxGeometry>
        </mxCell>
        <mxCell id="Ys3RYHyfG5r-3LQATyCL-74" value="If not start_btn" style="edgeLabel;html=1;align=center;verticalAlign=middle;resizable=0;points=[];fontSize=11;rotation=90;" parent="Ys3RYHyfG5r-3LQATyCL-73" vertex="1" connectable="0">
          <mxGeometry x="0.1197" y="-2" relative="1" as="geometry">
            <mxPoint x="10" y="3" as="offset" />
          </mxGeometry>
        </mxCell>
        <mxCell id="Ys3RYHyfG5r-3LQATyCL-75" style="edgeStyle=none;curved=1;rounded=0;orthogonalLoop=1;jettySize=auto;html=1;entryX=0;entryY=0.5;entryDx=0;entryDy=0;fontSize=12;startSize=8;endSize=8;exitX=1;exitY=0.5;exitDx=0;exitDy=0;" parent="1" source="Ys3RYHyfG5r-3LQATyCL-70" target="Ys3RYHyfG5r-3LQATyCL-53" edge="1">
          <mxGeometry relative="1" as="geometry">
            <mxPoint x="13" y="197.27" as="sourcePoint" />
            <mxPoint x="-92" y="197.27" as="targetPoint" />
          </mxGeometry>
        </mxCell>
        <mxCell id="Ys3RYHyfG5r-3LQATyCL-76" value="If pressed &amp;gt;=5s" style="edgeLabel;html=1;align=center;verticalAlign=middle;resizable=0;points=[];fontSize=12;rotation=0;" parent="Ys3RYHyfG5r-3LQATyCL-75" vertex="1" connectable="0">
          <mxGeometry x="0.2821" y="2" relative="1" as="geometry">
            <mxPoint x="-16" y="-8" as="offset" />
          </mxGeometry>
        </mxCell>
        <mxCell id="Ys3RYHyfG5r-3LQATyCL-87" value="IDLE" style="whiteSpace=wrap;html=1;" parent="1" vertex="1">
          <mxGeometry x="209" y="384" width="80" height="39" as="geometry" />
        </mxCell>
        <mxCell id="Ys3RYHyfG5r-3LQATyCL-90" value="" style="edgeStyle=segmentEdgeStyle;endArrow=classic;html=1;curved=0;rounded=0;endSize=8;startSize=8;sourcePerimeterSpacing=0;targetPerimeterSpacing=0;fontSize=12;entryX=0.5;entryY=1;entryDx=0;entryDy=0;strokeColor=default;exitX=0;exitY=0.75;exitDx=0;exitDy=0;" parent="1" source="Ys3RYHyfG5r-3LQATyCL-87" target="Ys3RYHyfG5r-3LQATyCL-53" edge="1">
          <mxGeometry width="140" relative="1" as="geometry">
            <mxPoint x="163" y="414" as="sourcePoint" />
            <mxPoint x="274" y="394" as="targetPoint" />
            <Array as="points">
              <mxPoint x="63" y="413" />
            </Array>
          </mxGeometry>
        </mxCell>
        <mxCell id="Ys3RYHyfG5r-3LQATyCL-97" value="if sw_close" style="edgeLabel;html=1;align=center;verticalAlign=middle;resizable=0;points=[];fontSize=12;" parent="Ys3RYHyfG5r-3LQATyCL-90" vertex="1" connectable="0">
          <mxGeometry x="-0.4015" y="2" relative="1" as="geometry">
            <mxPoint x="4" y="8" as="offset" />
          </mxGeometry>
        </mxCell>
        <mxCell id="Ys3RYHyfG5r-3LQATyCL-92" value="" style="edgeStyle=segmentEdgeStyle;endArrow=classic;html=1;curved=0;rounded=0;endSize=8;startSize=8;sourcePerimeterSpacing=0;targetPerimeterSpacing=0;fontSize=12;exitX=1;exitY=0.5;exitDx=0;exitDy=0;entryX=1;entryY=0.5;entryDx=0;entryDy=0;" parent="1" source="Ys3RYHyfG5r-3LQATyCL-87" target="Ys3RYHyfG5r-3LQATyCL-56" edge="1">
          <mxGeometry width="140" relative="1" as="geometry">
            <mxPoint x="96" y="249" as="sourcePoint" />
            <mxPoint x="236" y="309" as="targetPoint" />
            <Array as="points">
              <mxPoint x="526" y="404" />
              <mxPoint x="526" y="134" />
            </Array>
          </mxGeometry>
        </mxCell>
        <mxCell id="Ys3RYHyfG5r-3LQATyCL-98" value="if sw_open" style="edgeLabel;html=1;align=center;verticalAlign=middle;resizable=0;points=[];fontSize=12;" parent="Ys3RYHyfG5r-3LQATyCL-92" vertex="1" connectable="0">
          <mxGeometry x="-0.7741" y="-1" relative="1" as="geometry">
            <mxPoint x="17" y="9" as="offset" />
          </mxGeometry>
        </mxCell>
        <mxCell id="Ys3RYHyfG5r-3LQATyCL-93" value="" style="edgeStyle=segmentEdgeStyle;endArrow=classic;html=1;curved=0;rounded=0;endSize=8;startSize=8;sourcePerimeterSpacing=0;targetPerimeterSpacing=0;fontSize=12;exitX=0.5;exitY=0;exitDx=0;exitDy=0;entryX=0.5;entryY=1;entryDx=0;entryDy=0;" parent="1" source="Ys3RYHyfG5r-3LQATyCL-87" target="Ys3RYHyfG5r-3LQATyCL-21" edge="1">
          <mxGeometry width="140" relative="1" as="geometry">
            <mxPoint x="96" y="249" as="sourcePoint" />
            <mxPoint x="236" y="309" as="targetPoint" />
            <Array as="points">
              <mxPoint x="249" y="366" />
              <mxPoint x="249" y="366" />
            </Array>
          </mxGeometry>
        </mxCell>
        <mxCell id="Ys3RYHyfG5r-3LQATyCL-99" value="if not sw_close&lt;div&gt;and not sw_open&lt;/div&gt;" style="edgeLabel;html=1;align=center;verticalAlign=middle;resizable=0;points=[];fontSize=12;rotation=270;" parent="Ys3RYHyfG5r-3LQATyCL-93" vertex="1" connectable="0">
          <mxGeometry x="-0.033" y="-1" relative="1" as="geometry">
            <mxPoint x="16" y="3" as="offset" />
          </mxGeometry>
        </mxCell>
        <mxCell id="Ys3RYHyfG5r-3LQATyCL-96" value="" style="edgeStyle=segmentEdgeStyle;endArrow=classic;html=1;curved=0;rounded=0;endSize=8;startSize=8;sourcePerimeterSpacing=0;targetPerimeterSpacing=0;fontSize=12;exitX=0;exitY=0.5;exitDx=0;exitDy=0;entryX=0.5;entryY=0;entryDx=0;entryDy=0;" parent="1" source="Ys3RYHyfG5r-3LQATyCL-87" target="Ys3RYHyfG5r-3LQATyCL-24" edge="1">
          <mxGeometry width="140" relative="1" as="geometry">
            <mxPoint x="157" y="182" as="sourcePoint" />
            <mxPoint x="297" y="242" as="targetPoint" />
            <Array as="points">
              <mxPoint x="182" y="404" />
              <mxPoint x="128" y="404" />
            </Array>
          </mxGeometry>
        </mxCell>
        <mxCell id="Ys3RYHyfG5r-3LQATyCL-101" value="&lt;span style=&quot;font-size: 8px;&quot;&gt;if not sw_close&lt;/span&gt;&lt;div style=&quot;font-size: 8px;&quot;&gt;and not sw_open&lt;/div&gt;" style="edgeLabel;html=1;align=center;verticalAlign=middle;resizable=0;points=[];fontSize=12;" parent="Ys3RYHyfG5r-3LQATyCL-96" vertex="1" connectable="0">
          <mxGeometry x="-0.4939" y="-1" relative="1" as="geometry">
            <mxPoint x="-13" y="-14" as="offset" />
          </mxGeometry>
        </mxCell>
      </root>
    </mxGraphModel>
  </diagram>
</mxfile>
